<svg height="18" viewBox="0 0 18 18" width="18" xmlns="http://www.w3.org/2000/svg"><path d="m8.01028079 292.812598c-.10215421.119804-.25137424.188264-.40754717.188264-.01444065 0-.02888129-.000535-.04385678-.001605-.17168326-.014975-.32571683-.110177-.41450008-.258327l-2.37307978-3.954598.91724856-.550884 1.99013519 3.31707 5.22537517-6.134601.8145595.694221zm.98998663-12.812598c-4.97079186 0-9.00026742 4.03001-9.00026742 9.000267 0 4.970792 4.02947556 8.999733 9.00026742 8.999733 4.97079188 0 8.99973258-4.028941 8.99973258-8.999733 0-4.970257-4.0289407-9.000267-8.99973258-9.000267z" fill="#f38020" fill-rule="evenodd" transform="translate(0 -280)"/></svg>